<svg width="50" height="50" viewBox="0 0 50 50" fill="none" xmlns="http://www.w3.org/2000/svg">
<g clip-path="url(#clip0_92_37)">
<path d="M50 -0.5H-1V50.5H50V-0.5Z" fill="#19AA1E"/>
<path fill-rule="evenodd" clip-rule="evenodd" d="M-1 -0.5H50V16.2344L-1 8.26562V-0.5Z" fill="#FFB919"/>
<path fill-rule="evenodd" clip-rule="evenodd" d="M-1 44.9219L50 36.9531V50.5H-1V44.9219Z" fill="#82D714"/>
<path fill-rule="evenodd" clip-rule="evenodd" d="M-1 7.25732L16.8015 10.0394C19.0175 8.63687 21.6542 7.86805 24.5 7.86805C28.441 7.86805 31.9817 9.34322 34.5597 11.934C34.8836 12.2604 35.1909 12.6021 35.4777 12.9578L50 15.2273V17.2418L36.9529 15.2044C37.9293 17.0708 38.4411 19.1453 38.4447 21.2517C38.4447 23.984 37.8339 26.7087 36.5704 29.4436L36.5322 29.5265L35.9967 30.6765H34.7268C32.1066 30.6765 30.3688 31.4594 29.2328 32.8491C28.3403 33.9392 27.8252 35.4093 27.6518 37.0133L27.6454 37.0643L27.6199 37.3193L27.6097 37.4315L27.5893 37.6482C27.5308 38.2536 27.4862 38.8602 27.4555 39.4676L50 35.9448V37.9619L-1 45.9306V43.9136L21.57 40.3869L21.5599 39.9343L21.556 39.8068L21.5548 39.7418L21.5509 39.6398C21.5305 39.0915 21.4808 38.3877 21.4005 37.536L21.3852 37.3741L21.3571 37.0936C21.1952 35.4807 20.6865 33.9928 19.7965 32.8861C18.6733 31.4874 16.9507 30.6931 14.3523 30.6765H13.0046L12.4678 29.5265C11.1788 26.7635 10.5553 24.0121 10.5553 21.2517C10.5553 17.7812 11.9629 14.4254 14.4415 11.934C14.5129 11.8613 14.5843 11.7912 14.6583 11.7211L-1 9.2731V7.25732Z" fill="white"/>
<path fill-rule="evenodd" clip-rule="evenodd" d="M24.5 9.85938C31.6196 9.85938 36.4531 15.3393 36.4531 21.2515C36.4531 23.6256 35.9355 26.0952 34.7268 28.6848C27.7206 28.6848 25.9917 33.7006 25.6641 36.8575L25.6437 37.0679C25.5484 37.9698 25.4842 38.8747 25.4511 39.7811L23.5539 40.0769V40.0157C23.5463 39.3017 23.4774 38.2995 23.3499 37.0092L23.3448 36.9531C23.0427 33.8039 21.3495 28.6835 14.2732 28.6835C13.0645 26.0952 12.5469 23.6256 12.5469 21.2515C12.5469 15.3393 17.3791 9.85938 24.5 9.85938Z" fill="#0070CC"/>
</g>
<defs>
<clipPath id="clip0_92_37">
<rect width="51" height="51" fill="white" transform="translate(-1 -0.5)"/>
</clipPath>
</defs>
</svg>
