<svg width="50" height="50" viewBox="0 0 50 50" fill="none" xmlns="http://www.w3.org/2000/svg">
<g clip-path="url(#clip0_92_77)">
<path d="M24.962 59.9239C44.25 59.9239 59.8861 44.2879 59.8861 24.9998C59.8861 5.71175 44.25 -9.92432 24.962 -9.92432C5.6739 -9.92432 -9.96216 5.71175 -9.96216 24.9998C-9.96216 44.2879 5.6739 59.9239 24.962 59.9239Z" fill="#40A459"/>
<path d="M24.962 -9.92432C24.6962 -9.92432 24.4318 -9.92021 24.1674 -9.91434C24.1001 -9.91283 24.033 -9.91133 23.9658 -9.90928C23.7139 -9.9023 23.4624 -9.89301 23.212 -9.8807C23.1472 -9.87756 23.0828 -9.87305 23.0181 -9.86963C22.8275 -9.8591 22.6373 -9.84707 22.4474 -9.83354C22.3519 -9.8267 22.2564 -9.82014 22.1611 -9.81262C21.941 -9.79512 21.7213 -9.7757 21.5022 -9.7541C21.3888 -9.74289 21.276 -9.73045 21.1632 -9.71828C21.0277 -9.70352 20.8925 -9.68807 20.7575 -9.6718C20.6404 -9.65771 20.5231 -9.64418 20.4065 -9.629C37.542 -7.3968 50.7753 7.25549 50.7753 24.9994C50.7753 42.7433 37.5421 57.3957 20.4066 59.6279C20.5234 59.6431 20.6404 59.6568 20.7576 59.6707C20.8925 59.687 21.0279 59.7024 21.1634 59.7172C21.2763 59.7295 21.3892 59.742 21.5023 59.753C21.7215 59.7746 21.941 59.794 22.1613 59.8115C22.2564 59.8192 22.352 59.8258 22.4476 59.8325C22.6373 59.846 22.8275 59.8582 23.0182 59.8686C23.0829 59.8722 23.1474 59.8765 23.2121 59.8796C23.4627 59.8919 23.7141 59.9012 23.966 59.9082C24.0331 59.9101 24.1002 59.9118 24.1675 59.9133C24.4316 59.9191 24.6963 59.9232 24.9621 59.9232C44.2502 59.9232 59.8862 44.2871 59.8862 24.9991C59.8862 5.71111 44.2501 -9.92432 24.962 -9.92432Z" fill="#378B4E"/>
<path d="M20.4067 21.9631L34.9759 13.6025C34.9759 13.6025 50.9131 16.9971 54.5913 10.2853L55.7514 8.16846L56.7603 10.3614C58.8549 14.9147 59.9622 19.9767 59.9622 25C59.9622 36.5789 54.2269 47.3991 44.62 53.9438L43.6288 54.6192L20.4067 21.9631Z" fill="#898790"/>
<path d="M59.8861 25.0002C59.8861 18.965 58.3551 13.2874 55.6604 8.33447L54.5912 10.2853C53.2992 12.643 51.5987 15.0538 49.9039 17.2226C50.473 19.7238 50.7754 22.3267 50.7754 25.0002C50.7754 34.7533 46.7766 43.5713 40.3301 49.9071L43.5911 54.6466C53.3882 48.4609 59.8861 37.4433 59.8861 25.0002Z" fill="#7A797F"/>
<path d="M24.962 60.0002C13.0052 60.0002 1.99184 53.9735 -4.49875 43.8787L-5.11768 42.9162L14.3329 26.5186L36.7192 57.9805L35.2927 58.4433C31.9554 59.4764 28.4797 60.0002 24.962 60.0002Z" fill="#3D9AE3"/>
<path d="M14.333 26.5182L20.4067 21.9629L43.759 54.54L42.6239 55.2061C41.0204 56.1472 39.3327 56.9644 37.6077 57.635L36.7192 57.9805L14.333 26.5182Z" fill="white"/>
<path d="M36.7193 57.9807C39.2075 57.0955 41.5669 55.9376 43.7589 54.5404L40.3936 49.8457C38.5622 51.6548 36.5315 53.2626 34.3379 54.634L36.7193 57.9807Z" fill="#E0E0E3"/>
<path d="M-5.71106 41.8422C-6.66946 40.1035 -7.48349 38.2721 -8.13044 36.3991L-8.41919 35.2972L32.5542 6.77881L38.6279 11.3341L-5.11743 42.916L-5.71106 41.8422Z" fill="#FFCE00"/>
<path d="M42.3058 24.2092C40.1576 21.9657 29.4414 10.4344 29.4414 3.74187C29.4414 -3.83549 35.6061 -10 43.1833 -10C50.7605 -10 56.9252 -3.83549 56.9252 3.74187C56.9252 10.4299 46.2089 21.9647 44.0606 24.2092C43.5825 24.7088 42.7841 24.7089 42.3058 24.2092Z" fill="#CD2900"/>
<path d="M43.1833 8.37295C39.7923 8.37295 37.0337 5.61424 37.0337 2.22334C37.0337 -1.16756 39.7924 -3.92627 43.1833 -3.92627C46.5743 -3.92627 49.3329 -1.16756 49.3329 2.22334C49.3329 5.61424 46.5743 8.37295 43.1833 8.37295Z" fill="#891D00"/>
<path d="M9.77768 15.5099C13.7545 15.5099 16.9903 12.2743 16.9903 8.29728C16.9903 7.66838 16.4804 7.15842 15.8514 7.15842H11.2961C10.6672 7.15842 10.1572 7.66824 10.1572 8.29728C10.1572 8.92619 10.667 9.43615 11.2961 9.43615H14.5798C14.0645 11.6101 12.1068 13.2323 9.77754 13.2323C7.05656 13.2323 4.84268 11.0184 4.84268 8.29742C4.84268 5.57645 7.05656 3.36256 9.77754 3.36256C10.9807 3.36256 12.1394 3.80033 13.0403 4.59508C13.5123 5.01125 14.2318 4.966 14.6477 4.49445C15.0638 4.02277 15.0187 3.30309 14.5471 2.88705C13.2297 1.72494 11.5359 1.08496 9.77754 1.08496C5.80066 1.08496 2.56494 4.32055 2.56494 8.29756C2.56494 12.2746 5.80066 15.5099 9.77768 15.5099Z" fill="white"/>
</g>
<defs>
<clipPath id="clip0_92_77">
<rect width="70" height="70" fill="white" transform="translate(-10 -10)"/>
</clipPath>
</defs>
</svg>
