<svg width="48" height="42" viewBox="0 0 48 42" fill="none" xmlns="http://www.w3.org/2000/svg">
<path d="M9.63129 17.0006H1.76921C1.03505 17.0006 0.45874 17.5769 0.45874 18.3111V39.2764C0.45874 40.0105 1.03505 40.5868 1.76921 40.5868H9.63129C10.3655 40.5868 10.941 40.0105 10.941 39.2764V18.3111C10.9418 17.5769 10.3655 17.0006 9.63129 17.0006Z" fill="#235387"/>
<path d="M47.5406 19.4841C47.5406 17.3488 46.0746 15.1878 43.2746 15.1878H30.58C32.3936 11.9437 32.9268 7.38089 31.6662 4.04239C30.7402 1.58686 28.9705 0.15403 26.6804 0.00825455L26.6433 0.00523315C25.1531 -0.08616 23.863 1.0302 23.7392 2.51817C23.4129 5.82947 21.9619 11.6862 19.8825 13.7656C18.1317 15.5164 16.6331 16.2498 14.1489 17.4643C13.7894 17.6403 13.3966 17.8322 12.9812 18.0391C12.9888 18.129 12.9933 18.2189 12.9933 18.3111V39.0626C13.2931 39.1653 13.5892 39.2673 13.88 39.367C17.9799 40.7802 21.5231 42 26.9387 42H37.2019C40.0026 42 41.4679 39.8383 41.4679 37.7038C41.4679 37.0701 41.3395 36.4348 41.085 35.8532C42.0178 35.6856 42.8343 35.2369 43.4393 34.5503C44.1259 33.7701 44.5043 32.733 44.5043 31.6303C44.5043 30.9988 44.3759 30.3636 44.1221 29.7835C46.3707 29.3953 47.5414 27.4655 47.5414 25.5575C47.5414 24.451 47.1471 23.3369 46.3782 22.5212C47.1456 21.7047 47.5406 20.5906 47.5406 19.4841Z" fill="#235387"/>
</svg>
