<svg width="68" height="12" viewBox="0 0 68 12" fill="none" xmlns="http://www.w3.org/2000/svg">
<path d="M9.708 12L8.72657 7.5609L12 4.57444L7.68514 4.18647L6 0L4.31486 4.18556L0 4.57444L3.27343 7.5609L2.292 12L6 9.64511L9.708 12Z" fill="#FFB81C"/>
<path d="M23.708 12L22.7266 7.5609L26 4.57444L21.6851 4.18647L20 0L18.3149 4.18556L14 4.57444L17.2734 7.5609L16.292 12L20 9.64511L23.708 12Z" fill="#FFB81C"/>
<path d="M37.708 12L36.7266 7.5609L40 4.57444L35.6851 4.18647L34 0L32.3149 4.18556L28 4.57444L31.2734 7.5609L30.292 12L34 9.64511L37.708 12Z" fill="#FFB81C"/>
<path d="M51.708 12L50.7266 7.5609L54 4.57444L49.6851 4.18647L48 0L46.3149 4.18556L42 4.57444L45.2734 7.5609L44.292 12L48 9.64511L51.708 12Z" fill="#FFB81C"/>
<path d="M65.708 12L64.7266 7.5609L68 4.57444L63.6851 4.18647L62 0L60.3149 4.18556L56 4.57444L59.2734 7.5609L58.292 12L62 9.64511L65.708 12Z" fill="#FFB81C"/>
</svg>
