<svg width="36" height="42" viewBox="0 0 36 42" fill="none" xmlns="http://www.w3.org/2000/svg">
<path d="M29.6387 24.8294L29.5082 24.8788C29.0955 25.0358 28.7427 25.2598 28.4587 25.5438C28.1712 25.833 27.9472 26.1858 27.792 26.5968L27.6597 26.946C27.3334 27.8103 26.7319 28.4965 25.9858 28.9268C25.2397 29.3572 24.3472 29.5336 23.437 29.3837L23.0702 29.3237C22.6362 29.2531 22.2182 29.2708 21.8266 29.3766C21.4351 29.4824 21.0629 29.6747 20.726 29.9534L20.4226 30.2003C19.8952 30.6289 19.2885 30.9006 18.6623 31.0135L24.5076 41.2789C24.6522 41.5329 24.8586 41.7287 25.1002 41.8504C25.3436 41.9739 25.6259 42.0233 25.9239 41.9898C26.2168 41.9562 26.4796 41.8434 26.7001 41.6617C26.91 41.4818 27.0599 41.2507 27.1446 40.9773L28.5803 36.2907C28.6491 36.0632 28.8837 35.9326 29.1113 35.9838L33.8877 37.0809C34.1753 37.1462 34.4627 37.1286 34.7185 37.0333C34.9725 36.9398 35.2036 36.767 35.3782 36.5306C35.5528 36.2942 35.6498 36.0261 35.6639 35.7545C35.678 35.4828 35.6128 35.2024 35.4646 34.9448L29.6405 24.8293L29.6387 24.8294ZM17.3341 31.0084C16.7026 30.8955 16.0923 30.6221 15.5614 30.1864L15.2721 29.9501C14.9299 29.6714 14.5613 29.4773 14.1715 29.3733C13.7799 29.2692 13.3618 29.2498 12.928 29.3221L12.5593 29.3821C11.6492 29.532 10.7549 29.3557 10.0088 28.9253C9.26093 28.4949 8.66119 27.8087 8.33666 26.9445L8.20437 26.5935C8.04915 26.1825 7.82514 25.8297 7.53938 25.5422C7.25187 25.2565 6.89908 25.0325 6.48813 24.8772L6.3629 24.8296L0.533417 34.9452C0.387016 35.2009 0.321754 35.4796 0.335865 35.753C0.349975 36.0229 0.446986 36.2928 0.621609 36.5292C0.796231 36.7655 1.02553 36.9384 1.28127 37.0319C1.53704 37.1271 1.82453 37.1448 2.11203 37.0795L6.8885 35.9824C7.12133 35.9295 7.35238 36.067 7.41943 36.291L8.8605 40.9898C8.94869 41.265 9.10391 41.4978 9.31028 41.6672C9.52018 41.84 9.78301 41.9511 10.0758 41.9847C10.3721 42.0182 10.6561 41.967 10.8995 41.8453C11.1412 41.7236 11.3475 41.5278 11.4922 41.2738L17.3374 31.0084L17.3341 31.0084ZM12.792 14.4388C12.6156 14.2625 12.6156 13.9767 12.792 13.8003C12.9683 13.6239 13.2541 13.6239 13.4305 13.8003L17.0094 17.3809L22.5639 11.8265C22.7402 11.6501 23.026 11.6501 23.2024 11.8265C23.3788 12.0028 23.3788 12.2886 23.2024 12.465L17.3287 18.3387C17.1523 18.5151 16.8665 18.5151 16.6901 18.3387L12.7902 14.4388H12.792ZM17.9969 4.48718C20.9214 4.48718 23.569 5.67425 25.4863 7.58981C27.4054 9.50889 28.5907 12.1563 28.5907 15.081C28.5907 18.0057 27.4036 20.6567 25.474 22.5862C23.5443 24.4999 20.9075 25.6765 17.9968 25.6765C15.0723 25.6765 12.4247 24.4894 10.5074 22.5738C8.58837 20.6583 7.40305 18.0073 7.40305 15.0827C7.40305 12.1582 8.59013 9.51056 10.5057 7.59329C12.4248 5.67421 15.0722 4.4889 17.9969 4.4889L17.9969 4.48718ZM24.8514 8.22834C23.0982 6.47507 20.6746 5.39028 17.9969 5.39028C15.3193 5.39028 12.8958 6.47503 11.1425 8.22834C9.38918 9.98161 8.30439 12.4052 8.30439 15.0828C8.30439 17.7586 9.38914 20.1822 11.1425 21.9355C12.8957 23.6888 15.3193 24.7736 17.9951 24.7736C20.6603 24.7736 23.0732 23.6976 24.8352 21.9479C26.6008 20.1822 27.6856 17.7587 27.6856 15.083C27.6856 12.4055 26.6008 9.98188 24.8475 8.22852L24.8514 8.22834ZM20.1526 0.911918L19.8634 0.673799C19.3166 0.225778 18.6569 0 17.9972 0C17.3375 0 16.6778 0.224008 16.131 0.672038L15.8418 0.910157C15.399 1.27351 14.914 1.52575 14.4007 1.66334C13.8874 1.80092 13.3424 1.82385 12.7797 1.73213L12.4129 1.67216C11.7126 1.5575 11.0265 1.69156 10.4568 2.0214C9.88704 2.34948 9.42844 2.8751 9.17797 3.54009L9.04568 3.88934C8.84284 4.42379 8.55002 4.8859 8.17609 5.25987C7.79686 5.63557 7.33824 5.92839 6.80555 6.12946L6.45455 6.26175C5.79131 6.51222 5.26571 6.97082 4.93586 7.54054C4.60778 8.11025 4.47374 8.79462 4.58838 9.49488L4.64835 9.86529C4.74007 10.428 4.71713 10.973 4.57956 11.4863C4.44198 12.003 4.18975 12.4863 3.8299 12.9273L3.59178 13.2166C3.14376 13.7634 2.91798 14.4231 2.91798 15.0845C2.91798 15.7336 3.13494 16.3827 3.56884 16.9242L3.82989 17.2399C4.19148 17.6844 4.44372 18.1677 4.58131 18.681C4.71889 19.1943 4.74182 19.7393 4.6501 20.302L4.59013 20.6688C4.47724 21.3603 4.606 22.0376 4.93232 22.6126C5.26745 23.193 5.79306 23.6515 6.45629 23.902L6.80553 24.0343C7.33822 24.2354 7.79858 24.5282 8.17426 24.9039C8.55173 25.2831 8.8463 25.7417 9.04562 26.2744L9.17791 26.6254C9.42837 27.2887 9.88697 27.8143 10.4567 28.1441C11.0264 28.4722 11.7108 28.608 12.411 28.4916L12.7797 28.4316C13.3441 28.3399 13.8874 28.3629 14.4006 28.5004C14.9157 28.638 15.4007 28.8902 15.8417 29.2501L16.131 29.4864C16.6778 29.938 17.3375 30.162 17.9971 30.162C18.6515 30.162 19.3094 29.9398 19.8527 29.497L20.1544 29.2518C20.5971 28.8902 21.0804 28.638 21.5919 28.5004C22.1052 28.3628 22.6502 28.3381 23.2129 28.4316L23.5797 28.4916C24.28 28.6063 24.9661 28.4722 25.5359 28.1424C26.1056 27.8143 26.5642 27.2887 26.8146 26.6237L26.9469 26.2744C27.148 25.7382 27.4408 25.2779 27.8165 24.9039C28.194 24.5282 28.6544 24.2336 29.187 24.0325L29.5381 23.9002C30.2031 23.6498 30.7287 23.1912 31.0567 22.6215C31.3848 22.0517 31.5206 21.3674 31.4042 20.6654L31.3443 20.2967C31.2525 19.7323 31.2755 19.189 31.413 18.6757C31.5506 18.1607 31.8029 17.6774 32.1627 17.2364L32.4008 16.9472C32.8488 16.4004 33.0746 15.7407 33.0746 15.081C33.0746 14.4319 32.8577 13.7828 32.4238 13.2413L32.1627 12.9256C31.8011 12.4829 31.5489 11.9978 31.4113 11.4845C31.2737 10.9712 31.249 10.4262 31.3425 9.86355L31.4025 9.4949C31.5171 8.79464 31.3831 8.10851 31.0532 7.5388C30.7252 6.96908 30.1995 6.51049 29.5345 6.26002L29.1853 6.12772C28.6491 5.92665 28.1887 5.63382 27.813 5.25813C27.4373 4.88245 27.1445 4.42205 26.9434 3.8876L26.8111 3.53659C26.5606 2.8716 26.1021 2.346 25.5323 2.0179C24.9626 1.68983 24.2783 1.55403 23.5762 1.67042L23.2076 1.73039C22.6449 1.82211 22.0999 1.79918 21.5866 1.6616C21.0716 1.52402 20.5865 1.27179 20.1473 0.910184L20.1526 0.911918Z" fill="#235387"/>
</svg>
