<svg width="202" height="54" viewBox="0 0 202 54" fill="none" xmlns="http://www.w3.org/2000/svg">
<rect width="54" height="54" rx="8" fill="white"/>
<path d="M9.57648 7.96516V15.8911H8.54219V7.96516H9.57648ZM12.1241 7.96516V8.82525H6V7.96516H12.1241ZM16.1252 12.184H14.1165L14.1056 11.3402H15.9293C16.2304 11.3402 16.4936 11.2894 16.7186 11.1878C16.9436 11.0862 17.1178 10.941 17.2412 10.7523C17.3682 10.56 17.4317 10.3313 17.4317 10.0664C17.4317 9.77608 17.3754 9.54019 17.2629 9.35873C17.154 9.17365 16.9853 9.03937 16.7567 8.95591C16.5316 8.86881 16.2449 8.82525 15.8965 8.82525H14.3506V15.8911H13.2999V7.96516H15.8965C16.303 7.96516 16.6659 8.00689 16.9853 8.09037C17.3046 8.1702 17.5751 8.29722 17.7964 8.47142C18.0214 8.64199 18.192 8.85973 18.3081 9.12466C18.4242 9.38958 18.4823 9.70713 18.4823 10.0773C18.4823 10.4039 18.3989 10.6997 18.2319 10.9646C18.065 11.2259 17.8327 11.44 17.5351 11.607C17.2412 11.7739 16.8964 11.881 16.5008 11.9281L16.1252 12.184ZM16.0762 15.8911H13.7028L14.2961 15.0365H16.0762C16.41 15.0365 16.6931 14.9784 16.9254 14.8623C17.1613 14.7461 17.3409 14.5828 17.4643 14.3723C17.5877 14.1582 17.6494 13.906 17.6494 13.6157C17.6494 13.3217 17.5968 13.0677 17.4915 12.8536C17.3863 12.6394 17.2212 12.4743 16.9962 12.3582C16.7712 12.2421 16.4808 12.184 16.1252 12.184H14.6282L14.6391 11.3402H16.6859L16.9091 11.6451C17.2901 11.6777 17.6132 11.7866 17.878 11.9717C18.143 12.1531 18.3444 12.3854 18.4823 12.6685C18.6239 12.9515 18.6946 13.2637 18.6946 13.6048C18.6946 14.0983 18.5857 14.5157 18.368 14.8568C18.1539 15.1943 17.8508 15.452 17.4589 15.6299C17.067 15.804 16.6061 15.8911 16.0762 15.8911ZM26.3484 11.6777V12.1785C26.3484 12.7737 26.2739 13.3072 26.1252 13.779C25.9764 14.2508 25.7623 14.6518 25.4829 14.982C25.2034 15.3123 24.8677 15.5645 24.4758 15.7387C24.0874 15.9129 23.652 16 23.1692 16C22.7011 16 22.271 15.9129 21.8792 15.7387C21.4908 15.5645 21.1533 15.3123 20.8666 14.982C20.5835 14.6518 20.364 14.2508 20.2079 13.779C20.0519 13.3072 19.9739 12.7737 19.9739 12.1785V11.6777C19.9739 11.0826 20.0501 10.5509 20.2025 10.0827C20.3585 9.61095 20.5781 9.20994 20.8612 8.87969C21.1443 8.54581 21.48 8.29178 21.8682 8.11758C22.2602 7.94338 22.6902 7.85628 23.1584 7.85628C23.641 7.85628 24.0766 7.94338 24.4649 8.11758C24.8568 8.29178 25.1925 8.54581 25.472 8.87969C25.755 9.20994 25.971 9.61095 26.1197 10.0827C26.2722 10.5509 26.3484 11.0826 26.3484 11.6777ZM25.3087 12.1785V11.6668C25.3087 11.1951 25.2596 10.7777 25.1617 10.4148C25.0673 10.0519 24.9276 9.74705 24.7425 9.50026C24.5574 9.25349 24.3306 9.06659 24.0621 8.93957C23.7971 8.81255 23.4959 8.74904 23.1584 8.74904C22.8318 8.74904 22.536 8.81255 22.271 8.93957C22.0098 9.06659 21.7848 9.25349 21.5961 9.50026C21.411 9.74705 21.2677 10.0519 21.166 10.4148C21.0644 10.7777 21.0136 11.1951 21.0136 11.6668V12.1785C21.0136 12.654 21.0644 13.0749 21.166 13.4415C21.2677 13.8044 21.4128 14.111 21.6015 14.3615C21.7939 14.6082 22.0207 14.7951 22.282 14.9221C22.5469 15.0492 22.8427 15.1127 23.1692 15.1127C23.5104 15.1127 23.8134 15.0492 24.0784 14.9221C24.3433 14.7951 24.5664 14.6082 24.748 14.3615C24.933 14.111 25.0728 13.8044 25.1671 13.4415C25.2615 13.0749 25.3087 12.654 25.3087 12.1785ZM29.0158 14.0729L32.9189 7.96516H33.9695V15.8911H32.9189V9.77789L29.0158 15.8911H27.9706V7.96516H29.0158V14.0729ZM31.8029 6H32.6194C32.6194 6.28307 32.5541 6.53529 32.4235 6.75667C32.2929 6.97441 32.106 7.14498 31.8628 7.26837C31.6196 7.39176 31.3311 7.45346 30.9972 7.45346C30.4928 7.45346 30.0936 7.31918 29.7997 7.05063C29.5094 6.77844 29.3642 6.42823 29.3642 6H30.1807C30.1807 6.21412 30.2424 6.40283 30.3658 6.56614C30.4891 6.72945 30.6997 6.8111 30.9972 6.8111C31.2876 6.8111 31.4945 6.72945 31.6178 6.56614C31.7412 6.40283 31.8029 6.21412 31.8029 6Z" fill="#235387"/>
<path d="M29.8413 43.1939H28.6849V42.3717H29.7945C30.2847 42.3717 30.6814 42.3026 30.9844 42.1644C31.2874 42.0263 31.508 41.8347 31.6462 41.5896C31.7843 41.3445 31.8534 41.0615 31.8534 40.7406C31.8534 40.4332 31.7776 40.1524 31.6261 39.8984C31.4746 39.6399 31.2406 39.4349 30.9242 39.2834C30.6078 39.1274 30.2001 39.0495 29.701 39.0495C29.3266 39.0495 28.988 39.1208 28.6849 39.2634C28.3819 39.4015 28.1412 39.5954 27.963 39.8449C27.7847 40.09 27.6956 40.373 27.6956 40.6938H26.4055C26.4055 40.2794 26.4924 39.9073 26.6662 39.5775C26.84 39.2433 27.0784 38.9603 27.3815 38.7286C27.6845 38.4924 28.0343 38.3119 28.4309 38.1872C28.832 38.0624 29.2553 38 29.701 38C30.2224 38 30.6947 38.0602 31.1181 38.1805C31.5414 38.2963 31.9046 38.4701 32.2076 38.7019C32.5107 38.9336 32.7424 39.221 32.9028 39.5642C33.0633 39.9073 33.1435 40.3062 33.1435 40.7607C33.1435 41.0949 33.0655 41.4091 32.9095 41.7032C32.7535 41.9973 32.5307 42.2558 32.2411 42.4786C31.9514 42.7014 31.6038 42.8774 31.1983 43.0067C30.7928 43.1315 30.3405 43.1939 29.8413 43.1939ZM28.6849 42.6257H29.8413C30.3895 42.6257 30.8774 42.6814 31.3052 42.7928C31.7331 42.9042 32.094 43.0668 32.3881 43.2807C32.6822 43.4947 32.9051 43.7598 33.0566 44.0762C33.2125 44.3881 33.2905 44.7469 33.2905 45.1524C33.2905 45.6069 33.2014 46.0103 33.0232 46.3623C32.8494 46.7143 32.602 47.0129 32.2812 47.258C31.9603 47.5031 31.5793 47.6881 31.1381 47.8128C30.7014 47.9376 30.2224 48 29.701 48C29.2821 48 28.8676 47.9465 28.4576 47.8396C28.0521 47.7282 27.6845 47.5588 27.3547 47.3315C27.0249 47.0998 26.7598 46.8057 26.5593 46.4492C26.3632 46.0927 26.2651 45.6649 26.2651 45.1658H27.5552C27.5552 45.4911 27.6444 45.7897 27.8226 46.0615C28.0053 46.3333 28.2571 46.5517 28.578 46.7166C28.8988 46.877 29.2732 46.9572 29.701 46.9572C30.1912 46.9572 30.6056 46.8815 30.9443 46.7299C31.2874 46.574 31.5481 46.3623 31.7264 46.0949C31.9091 45.8231 32.0004 45.5178 32.0004 45.1791C32.0004 44.8806 31.9514 44.6221 31.8534 44.4037C31.7598 44.1809 31.6194 43.9982 31.4323 43.8556C31.2495 43.713 31.02 43.6083 30.7437 43.5414C30.4719 43.4701 30.1555 43.4345 29.7945 43.4345H28.6849V42.6257Z" fill="#235387" stroke="#235387" stroke-width="0.3"/>
<path d="M40.4857 41.7692H39.827C39.8706 41.5479 39.9275 41.3345 39.9974 41.1289L39.9979 41.1274C40.1811 40.5834 40.4415 40.1217 40.7756 39.7354C41.1149 39.344 41.5172 39.043 41.9862 38.8293L41.9862 38.8293L41.9885 38.8283C42.4556 38.6127 42.9888 38.5 43.5971 38.5C44.2187 38.5 44.7576 38.6132 45.2236 38.8283L45.2236 38.8283L45.2277 38.8302C45.702 39.0439 46.1025 39.344 46.4342 39.7328L46.4342 39.7328L46.4389 39.7382C46.778 40.1241 47.0404 40.5849 47.2231 41.1274L47.2235 41.1289C47.4062 41.666 47.5 42.2557 47.5 42.902V43.1069C47.5 43.7532 47.4062 44.343 47.2235 44.8801C47.0407 45.418 46.7801 45.881 46.4443 46.2748C46.1124 46.6582 45.7109 46.9595 45.2346 47.1796C44.7675 47.3897 44.2306 47.5 43.6149 47.5C42.9992 47.5 42.4624 47.3897 41.9953 47.1796C41.5189 46.9594 41.1138 46.6578 40.7755 46.2734C40.4403 45.8799 40.1801 45.4174 39.9974 44.88C39.9144 44.636 39.8498 44.3811 39.804 44.115H40.4606C40.4882 44.2788 40.5229 44.4399 40.5647 44.5982L40.5651 44.5999C40.6913 45.0716 40.8833 45.4994 41.1448 45.8778L41.1447 45.8778L41.1483 45.8828C41.4214 46.268 41.7617 46.5774 42.167 46.805L42.1669 46.8051L42.176 46.8099C42.6047 47.039 43.0893 47.1453 43.6149 47.1453C44.1403 47.1453 44.6236 47.0391 45.0481 46.8082L45.0481 46.8082L45.0508 46.8068C45.4638 46.5789 45.8069 46.2676 46.0762 45.8778C46.3373 45.5 46.529 45.0729 46.6553 44.602C46.7867 44.1279 46.8511 43.6288 46.8511 43.1069V42.902C46.8511 42.3861 46.7868 41.8929 46.6553 41.4246C46.5291 40.9482 46.3344 40.5177 46.0668 40.1392C45.7982 39.7448 45.4555 39.4303 45.0419 39.2021C44.6121 38.965 44.1253 38.8547 43.5971 38.8547C43.0739 38.8547 42.5918 38.9655 42.167 39.2039L42.167 39.2039C41.7596 39.4327 41.4187 39.7466 41.1458 40.1385L41.1448 40.14C40.8827 40.5193 40.6909 40.9505 40.5649 41.4276C40.5348 41.54 40.5085 41.6539 40.4857 41.7692ZM39.7223 42.7692H40.1292V43.115H39.721C39.721 43.1123 39.721 43.1096 39.721 43.1069V42.902C39.721 42.8574 39.7215 42.8132 39.7223 42.7692ZM38.721 43.1069C38.721 43.1096 38.721 43.1123 38.721 43.115H37.4394V42.7692H38.7222C38.7214 42.8133 38.721 42.8575 38.721 42.902V43.1069ZM36.4394 41.7692H35.7905V38.6783H36.4394V41.7692ZM36.4394 42.7692V43.115H36.0044V42.7692H36.4394ZM35.7905 44.115H36.4394V47.3217H35.7905V44.115Z" fill="#235387" stroke="#235387"/>
<path d="M69.5066 16.1303H67.726V14.8581H69.4346C70.1894 14.8581 70.8001 14.7512 71.2667 14.5375C71.7333 14.3237 72.0729 14.0272 72.2857 13.648C72.4984 13.2687 72.6047 12.8309 72.6047 12.3344C72.6047 11.8587 72.4881 11.4243 72.2548 11.0312C72.0215 10.6313 71.6612 10.3141 71.174 10.0797C70.6868 9.83834 70.059 9.71767 69.2905 9.71767C68.7141 9.71767 68.1926 9.82799 67.726 10.0486C67.2594 10.2624 66.8888 10.5624 66.6144 10.9485C66.3399 11.3277 66.2027 11.7656 66.2027 12.262H64.2161C64.2161 11.6208 64.35 11.045 64.6176 10.5348C64.8852 10.0176 65.2523 9.57977 65.7189 9.22121C66.1855 8.85576 66.7241 8.57651 67.3348 8.38343C67.9524 8.19037 68.6043 8.09383 69.2905 8.09383C70.0933 8.09383 70.8206 8.18693 71.4725 8.3731C72.1244 8.55238 72.6836 8.82129 73.1502 9.17985C73.6168 9.5384 73.9736 9.98316 74.2207 10.5141C74.4677 11.045 74.5912 11.6622 74.5912 12.3655C74.5912 12.8826 74.4711 13.3687 74.231 13.8238C73.9908 14.2789 73.6477 14.6788 73.2017 15.0236C72.7557 15.3684 72.2205 15.6407 71.596 15.8407C70.9716 16.0338 70.2751 16.1303 69.5066 16.1303ZM67.726 15.2512H69.5066C70.3506 15.2512 71.102 15.3373 71.7607 15.5097C72.4195 15.6821 72.9753 15.9338 73.4281 16.2648C73.881 16.5957 74.2241 17.006 74.4574 17.4956C74.6976 17.9782 74.8177 18.5333 74.8177 19.1608C74.8177 19.8641 74.6804 20.4881 74.406 21.0329C74.1383 21.5776 73.7575 22.0396 73.2635 22.4188C72.7694 22.798 72.1827 23.0843 71.5034 23.2772C70.8309 23.4703 70.0933 23.5669 69.2905 23.5669C68.6454 23.5669 68.0073 23.4841 67.376 23.3187C66.7516 23.1462 66.1855 22.8843 65.6777 22.5325C65.1699 22.174 64.7617 21.7189 64.4529 21.1673C64.151 20.6157 64 19.9537 64 19.1815H65.9865C65.9865 19.6848 66.1237 20.1468 66.3982 20.5674C66.6795 20.988 67.0672 21.3259 67.5613 21.581C68.0553 21.8293 68.6317 21.9534 69.2905 21.9534C70.0453 21.9534 70.6834 21.8362 71.2049 21.6017C71.7333 21.3604 72.1347 21.0329 72.4092 20.6191C72.6905 20.1985 72.8312 19.7262 72.8312 19.2021C72.8312 18.7402 72.7557 18.3402 72.6047 18.0024C72.4606 17.6576 72.2445 17.3749 71.9563 17.1543C71.6749 16.9336 71.3216 16.7716 70.8961 16.6681C70.4776 16.5578 69.9904 16.5026 69.4346 16.5026H67.726V15.2512ZM87.2204 14.7754V16.3992H79.1097V14.7754H87.2204ZM79.4185 8.3007V23.36H77.432V8.3007H79.4185ZM88.9496 8.3007V23.36H86.9734V8.3007H88.9496ZM98.213 9.63494L93.2519 23.36H91.2243L96.9368 8.3007H98.2439L98.213 9.63494ZM102.371 23.36L97.3999 9.63494L97.3689 8.3007H98.6762L104.409 23.36H102.371ZM102.114 17.7852V19.4194H93.6944V17.7852H102.114ZM108.495 8.3007V23.36H106.509V8.3007H108.495ZM117.728 8.3007L111.223 16.5854H107.703L107.394 14.9305H110.039L115.268 8.3007H117.728ZM115.731 23.36L110.101 16.3268L111.213 14.5789L118.16 23.36H115.731ZM131.17 15.3546V16.3061C131.17 17.437 131.03 18.4506 130.748 19.3469C130.467 20.2434 130.062 21.0053 129.534 21.6327C129.005 22.2603 128.371 22.7394 127.63 23.0703C126.895 23.4013 126.072 23.5669 125.159 23.5669C124.274 23.5669 123.461 23.4013 122.72 23.0703C121.986 22.7394 121.348 22.2603 120.805 21.6327C120.27 21.0053 119.855 20.2434 119.56 19.3469C119.265 18.4506 119.118 17.437 119.118 16.3061V15.3546C119.118 14.2238 119.262 13.2136 119.55 12.3241C119.845 11.4277 120.26 10.6658 120.795 10.0383C121.331 9.40394 121.965 8.92127 122.699 8.59029C123.44 8.25932 124.254 8.09383 125.139 8.09383C126.051 8.09383 126.875 8.25932 127.609 8.59029C128.35 8.92127 128.985 9.40394 129.513 10.0383C130.049 10.6658 130.457 11.4277 130.738 12.3241C131.026 13.2136 131.17 14.2238 131.17 15.3546ZM129.204 16.3061V15.3339C129.204 14.4375 129.112 13.6445 128.927 12.955C128.748 12.2655 128.484 11.6863 128.134 11.2174C127.784 10.7485 127.355 10.3934 126.847 10.1521C126.346 9.91075 125.777 9.79008 125.139 9.79008C124.521 9.79008 123.962 9.91075 123.461 10.1521C122.967 10.3934 122.542 10.7485 122.185 11.2174C121.835 11.6863 121.564 12.2655 121.372 12.955C121.179 13.6445 121.083 14.4375 121.083 15.3339V16.3061C121.083 17.2094 121.179 18.0093 121.372 18.7057C121.564 19.3952 121.838 19.9779 122.195 20.4537C122.559 20.9225 122.988 21.2776 123.482 21.519C123.983 21.7603 124.542 21.881 125.159 21.881C125.804 21.881 126.377 21.7603 126.878 21.519C127.379 21.2776 127.801 20.9225 128.144 20.4537C128.494 19.9779 128.758 19.3952 128.937 18.7057C129.115 18.0093 129.204 17.2094 129.204 16.3061ZM134.773 8.3007H136.698L141.607 20.5778L146.507 8.3007H148.442L142.348 23.36H140.845L134.773 8.3007ZM134.145 8.3007H135.843L136.121 17.4852V23.36H134.145V8.3007ZM147.361 8.3007H149.059V23.36H147.083V17.4852L147.361 8.3007ZM154.154 14.4341H158.24C159.338 14.4341 160.264 14.6202 161.019 14.9926C161.774 15.358 162.347 15.8717 162.738 16.5337C163.129 17.1956 163.325 17.9714 163.325 18.8608C163.325 19.5228 163.215 20.1296 162.995 20.6812C162.776 21.2259 162.45 21.7017 162.018 22.1085C161.585 22.5085 161.054 22.8188 160.422 23.0395C159.791 23.2532 159.064 23.36 158.24 23.36H152.641V8.3007H154.627V21.7362H158.24C158.975 21.7362 159.568 21.6017 160.021 21.3328C160.481 21.057 160.817 20.6984 161.03 20.2571C161.242 19.8158 161.349 19.3435 161.349 18.8401C161.349 18.3368 161.242 17.8748 161.03 17.4542C160.817 17.0336 160.481 16.6992 160.021 16.4509C159.568 16.1958 158.975 16.0682 158.24 16.0682H154.154V14.4341ZM167.123 8.3007V23.36H165.136V8.3007H167.123ZM172.856 19.9055L180.236 8.3007H182.222V23.36H180.236V11.7449L172.856 23.36H170.88V8.3007H172.856V19.9055ZM178.126 4.56689H179.67C179.67 5.10473 179.546 5.58395 179.299 6.00456C179.052 6.41827 178.699 6.74236 178.239 6.9768C177.779 7.21123 177.234 7.32846 176.602 7.32846C175.649 7.32846 174.894 7.07334 174.338 6.56309C173.789 6.04593 173.515 5.38054 173.515 4.56689H175.059C175.059 4.97372 175.175 5.33227 175.408 5.64256C175.642 5.95285 176.04 6.10799 176.602 6.10799C177.151 6.10799 177.543 5.95285 177.776 5.64256C178.009 5.33227 178.126 4.97372 178.126 4.56689Z" fill="white" stroke="white"/>
<path d="M66.1313 29.2272V45.7727H64V29.2272H66.1313ZM69.8198 36.8068V38.5341H65.9988V36.8068H69.8198ZM81.3601 36.9772V38.0227C81.3601 39.2651 81.2091 40.3788 80.9073 41.3636C80.6054 42.3485 80.1711 43.1856 79.6042 43.875C79.0373 44.5644 78.3563 45.0909 77.5612 45.4545C76.7734 45.8182 75.89 46 74.9108 46C73.9611 46 73.0886 45.8182 72.2935 45.4545C71.5058 45.0909 70.8211 44.5644 70.2395 43.875C69.6652 43.1856 69.2198 42.3485 68.9032 41.3636C68.5867 40.3788 68.4284 39.2651 68.4284 38.0227V36.9772C68.4284 35.7348 68.583 34.625 68.8922 33.6477C69.2088 32.6628 69.6542 31.8257 70.2284 31.1363C70.8027 30.4394 71.4837 29.9091 72.2714 29.5454C73.0665 29.1818 73.939 29 74.8887 29C75.8679 29 76.7513 29.1818 77.5391 29.5454C78.3342 29.9091 79.0152 30.4394 79.5821 31.1363C80.1563 31.8257 80.5944 32.6628 80.8962 33.6477C81.2055 34.625 81.3601 35.7348 81.3601 36.9772ZM79.2508 38.0227V36.9545C79.2508 35.9697 79.1514 35.0984 78.9526 34.3409C78.7612 33.5833 78.4778 32.9469 78.1023 32.4318C77.7268 31.9166 77.2667 31.5265 76.7219 31.2613C76.1844 30.9962 75.5734 30.8636 74.8887 30.8636C74.2261 30.8636 73.6261 30.9962 73.0886 31.2613C72.5586 31.5265 72.1021 31.9166 71.7193 32.4318C71.3438 32.9469 71.053 33.5833 70.8468 34.3409C70.6407 35.0984 70.5376 35.9697 70.5376 36.9545V38.0227C70.5376 39.0151 70.6407 39.8939 70.8468 40.6591C71.053 41.4166 71.3475 42.0568 71.7303 42.5795C72.1205 43.0947 72.5806 43.4848 73.1107 43.75C73.6482 44.0151 74.2482 44.1477 74.9108 44.1477C75.6028 44.1477 76.2176 44.0151 76.755 43.75C77.2924 43.4848 77.7452 43.0947 78.1133 42.5795C78.4888 42.0568 78.7723 41.4166 78.9637 40.6591C79.1551 39.8939 79.2508 39.0151 79.2508 38.0227ZM90.007 39.2841H85.7111V37.5H90.007C90.8389 37.5 91.5125 37.3636 92.028 37.0909C92.5432 36.8181 92.9187 36.4394 93.1543 35.9545C93.3972 35.4697 93.5188 34.9166 93.5188 34.2954C93.5188 33.7272 93.3972 33.1931 93.1543 32.6932C92.9187 32.1932 92.5432 31.7916 92.028 31.4886C91.5125 31.178 90.8389 31.0227 90.007 31.0227H86.2081V45.7727H84.0767V29.2272H90.007C91.2217 29.2272 92.2487 29.4432 93.0881 29.875C93.9274 30.3068 94.5642 30.9053 94.9985 31.6704C95.4329 32.428 95.65 33.2954 95.65 34.2727C95.65 35.3333 95.4329 36.2386 94.9985 36.9886C94.5642 37.7386 93.9274 38.3106 93.0881 38.7045C92.2487 39.0909 91.2217 39.2841 90.007 39.2841ZM100.564 41.9772L108.482 29.2272H110.614V45.7727H108.482V33.0113L100.564 45.7727H98.4441V29.2272H100.564V41.9772ZM124.197 40.5113H126.317C126.207 41.5568 125.916 42.4924 125.445 43.3182C124.974 44.1439 124.307 44.7992 123.446 45.2841C122.585 45.7613 121.51 46 120.221 46C119.279 46 118.421 45.8182 117.648 45.4545C116.883 45.0909 116.224 44.5757 115.672 43.9091C115.119 43.2348 114.693 42.428 114.391 41.4886C114.096 40.5416 113.949 39.4886 113.949 38.3295V36.6818C113.949 35.5227 114.096 34.4735 114.391 33.5341C114.693 32.5871 115.123 31.7765 115.683 31.1022C116.249 30.428 116.93 29.9091 117.726 29.5454C118.521 29.1818 119.415 29 120.409 29C121.624 29 122.651 29.2348 123.49 29.7045C124.329 30.1742 124.981 30.8257 125.445 31.6591C125.916 32.4848 126.207 33.4432 126.317 34.5341H124.197C124.094 33.7613 123.903 33.0984 123.623 32.5454C123.343 31.9848 122.946 31.553 122.43 31.25C121.915 30.9469 121.241 30.7954 120.409 30.7954C119.695 30.7954 119.066 30.9356 118.521 31.2159C117.983 31.4962 117.531 31.8939 117.162 32.4091C116.802 32.9242 116.529 33.5416 116.345 34.2613C116.161 34.981 116.069 35.7803 116.069 36.6591V38.3295C116.069 39.1401 116.15 39.9015 116.312 40.6136C116.481 41.3257 116.735 41.9507 117.074 42.4886C117.413 43.0265 117.843 43.4507 118.366 43.7613C118.889 44.0644 119.507 44.2159 120.221 44.2159C121.127 44.2159 121.848 44.0681 122.386 43.7727C122.923 43.4772 123.328 43.053 123.601 42.5C123.881 41.9469 124.079 41.2841 124.197 40.5113ZM134.832 29.2272V45.7727H132.733V29.2272H134.832ZM140 29.2272V31.0227H127.576V29.2272H140Z" fill="white" stroke="white"/>
</svg>
