<svg width="100" height="101" viewBox="0 0 100 101" fill="none" xmlns="http://www.w3.org/2000/svg">
<g clip-path="url(#clip0_67_611)">
<path d="M85.1852 0.219727H14.8148C6.63282 0.219727 0 6.85254 0 15.0345V85.4049C0 93.5869 6.63282 100.22 14.8148 100.22H85.1852C93.3672 100.22 100 93.5869 100 85.4049V15.0345C100 6.85254 93.3672 0.219727 85.1852 0.219727Z" fill="#235387"/>
<path d="M15.085 13.5146V22.3212H13.9357V13.5146H15.085ZM17.9157 13.5146V14.4702H11.1111V13.5146H17.9157ZM22.3613 18.2022H20.1294L20.1174 17.2646H22.1435C22.4783 17.2646 22.7705 17.2082 23.0205 17.0953C23.2707 16.9824 23.4642 16.8211 23.6013 16.6114C23.7424 16.3977 23.8129 16.1436 23.8129 15.8493C23.8129 15.5267 23.7503 15.2646 23.6253 15.063C23.5044 14.8573 23.317 14.7081 23.0629 14.6154C22.8129 14.5186 22.4944 14.4702 22.1072 14.4702H20.3894V22.3212H19.2222V13.5146H22.1072C22.5589 13.5146 22.962 13.5609 23.317 13.6537C23.6718 13.7424 23.9722 13.8835 24.2181 14.0771C24.4681 14.2666 24.6578 14.5085 24.7866 14.8029C24.9157 15.0973 24.9803 15.4501 24.9803 15.8614C24.9803 16.2243 24.8876 16.5529 24.702 16.8473C24.5166 17.1376 24.2585 17.3755 23.9279 17.561C23.6013 17.7465 23.2181 17.8654 22.7787 17.9179L22.3613 18.2022ZM22.3068 22.3212H19.6698L20.329 21.3716H22.3068C22.6778 21.3716 22.9924 21.307 23.2503 21.1781C23.5126 21.049 23.7122 20.8675 23.8492 20.6336C23.9863 20.3957 24.0548 20.1155 24.0548 19.7929C24.0548 19.4662 23.9965 19.184 23.8794 18.9461C23.7626 18.7082 23.579 18.5247 23.329 18.3957C23.079 18.2667 22.7565 18.2022 22.3613 18.2022H20.6979L20.71 17.2646H22.9842L23.2324 17.6034C23.6557 17.6396 24.0146 17.7606 24.3089 17.9663C24.6033 18.1679 24.827 18.4259 24.9803 18.7405C25.1376 19.0549 25.2161 19.4018 25.2161 19.7809C25.2161 20.3292 25.0952 20.7929 24.8533 21.172C24.6153 21.547 24.2787 21.8333 23.8433 22.0309C23.4078 22.2244 22.8955 22.3212 22.3068 22.3212ZM33.7203 17.6396V18.1961C33.7203 18.8574 33.6378 19.4501 33.4724 19.9744C33.307 20.4986 33.0692 20.9442 32.7587 21.3111C32.4481 21.6781 32.0752 21.9583 31.6398 22.1518C31.2083 22.3453 30.7244 22.4422 30.1879 22.4422C29.6679 22.4422 29.19 22.3453 28.7546 22.1518C28.3231 21.9583 27.9481 21.6781 27.6296 21.3111C27.315 20.9442 27.0711 20.4986 26.8976 19.9744C26.7242 19.4501 26.6376 18.8574 26.6376 18.1961V17.6396C26.6376 16.9783 26.7222 16.3876 26.8916 15.8674C27.065 15.3432 27.309 14.8976 27.6235 14.5307C27.9381 14.1597 28.3111 13.8775 28.7424 13.6839C29.1779 13.4904 29.6557 13.3936 30.1759 13.3936C30.7122 13.3936 31.1961 13.4904 31.6276 13.6839C32.0631 13.8775 32.4361 14.1597 32.7466 14.5307C33.0611 14.8976 33.3011 15.3432 33.4663 15.8674C33.6357 16.3876 33.7203 16.9783 33.7203 17.6396ZM32.5652 18.1961V17.6275C32.5652 17.1033 32.5107 16.6396 32.4018 16.2364C32.297 15.8331 32.1416 15.4944 31.9361 15.2202C31.7305 14.946 31.4783 14.7384 31.18 14.5972C30.8857 14.4561 30.5509 14.3856 30.1759 14.3856C29.8131 14.3856 29.4844 14.4561 29.19 14.5972C28.8998 14.7384 28.6498 14.946 28.44 15.2202C28.2344 15.4944 28.0752 15.8331 27.9622 16.2364C27.8492 16.6396 27.7927 17.1033 27.7927 17.6275V18.1961C27.7927 18.7243 27.8492 19.1922 27.9622 19.5994C28.0752 20.0025 28.2365 20.3433 28.4461 20.6216C28.6598 20.8957 28.9118 21.1035 29.2022 21.2446C29.4965 21.3857 29.8252 21.4562 30.1879 21.4562C30.567 21.4562 30.9039 21.3857 31.1981 21.2446C31.4926 21.1035 31.7405 20.8957 31.9422 20.6216C32.1478 20.3433 32.3031 20.0025 32.4078 19.5994C32.5128 19.1922 32.5652 18.7243 32.5652 18.1961ZM36.6842 20.3011L41.0209 13.5146H42.1883V22.3212H41.0209V15.5287L36.6842 22.3212H35.5228V13.5146H36.6842V20.3011ZM39.7809 11.3311H40.6883C40.6883 11.6456 40.6157 11.9258 40.4705 12.1718C40.3253 12.4137 40.1178 12.6033 39.8476 12.7404C39.5774 12.8774 39.2568 12.946 38.8857 12.946C38.3253 12.946 37.8818 12.7968 37.5552 12.4984C37.2326 12.196 37.0713 11.8069 37.0713 11.3311H37.9785C37.9785 11.569 38.047 11.7786 38.1842 11.9601C38.3213 12.1416 38.5552 12.2323 38.8857 12.2323C39.2083 12.2323 39.4383 12.1416 39.5753 11.9601C39.7124 11.7786 39.7809 11.569 39.7809 11.3311Z" fill="white"/>
<path d="M40.3001 75.7585H37.0879V73.4746H40.1703C41.532 73.4746 42.6336 73.2827 43.4753 72.899C44.317 72.5151 44.9297 71.9829 45.3136 71.3022C45.6973 70.6212 45.8892 69.8353 45.8892 68.944C45.8892 68.0898 45.6786 67.3099 45.2579 66.6044C44.837 65.8864 44.1871 65.317 43.3082 64.8961C42.4294 64.4629 41.2966 64.2462 39.9103 64.2462C38.8705 64.2462 37.9297 64.4442 37.0879 64.8403C36.2462 65.2242 35.5777 65.7625 35.0825 66.4559C34.5873 67.1366 34.3399 67.9227 34.3399 68.814H30.7562C30.7562 67.6627 30.9975 66.6292 31.4803 65.7131C31.9631 64.7848 32.6255 63.9986 33.4671 63.3549C34.3088 62.6988 35.2807 62.1975 36.3823 61.8509C37.4964 61.5044 38.6723 61.3311 39.9103 61.3311C41.3586 61.3311 42.6707 61.4981 43.8468 61.8323C45.0227 62.1542 46.0316 62.637 46.8732 63.2807C47.7151 63.9244 48.3586 64.7229 48.8044 65.6761C49.2499 66.6292 49.4729 67.737 49.4729 68.9996C49.4729 69.9281 49.2562 70.8007 48.8229 71.6177C48.3897 72.4348 47.7707 73.1527 46.966 73.7716C46.1614 74.3905 45.196 74.8796 44.0695 75.2385C42.9431 75.5851 41.6866 75.7585 40.3001 75.7585ZM37.0879 74.1801H40.3001C41.8227 74.1801 43.1782 74.3349 44.3666 74.6444C45.5549 74.9538 46.5575 75.4057 47.3745 75.9998C48.1916 76.594 48.8105 77.3305 49.2314 78.2094C49.6645 79.0759 49.8812 80.0723 49.8812 81.1988C49.8812 82.4614 49.6336 83.5818 49.1386 84.5596C48.6558 85.5375 47.9688 86.367 47.0775 87.0477C46.1862 87.7286 45.1279 88.2424 43.9023 88.5888C42.6892 88.9355 41.3586 89.1088 39.9103 89.1088C38.7466 89.1088 37.5955 88.9603 36.4566 88.6633C35.3301 88.3536 34.3088 87.8833 33.3929 87.252C32.4768 86.6083 31.7403 85.7912 31.1832 84.8011C30.6386 83.8107 30.3662 82.6223 30.3662 81.2361H33.9499C33.9499 82.1396 34.1975 82.969 34.6927 83.724C35.2001 84.4792 35.8995 85.0857 36.7908 85.5438C37.6821 85.9894 38.722 86.2122 39.9103 86.2122C41.272 86.2122 42.4231 86.0018 43.3638 85.5809C44.317 85.1477 45.0412 84.5596 45.5364 83.817C46.044 83.0618 46.2977 82.2138 46.2977 81.2731C46.2977 80.4436 46.1614 79.7259 45.8892 79.1192C45.6292 78.5003 45.2394 77.9927 44.7194 77.5966C44.2118 77.2005 43.5744 76.9096 42.8068 76.724C42.0518 76.5259 41.1729 76.4268 40.1703 76.4268H37.0879V74.1801Z" fill="white"/>
<path d="M68.4143 73.1898V76.9283H54.179V73.1898H68.4143ZM58.1649 61.8262V88.6136H53.5847V61.8262H58.1649ZM64.5029 75.517V74.9475C64.5029 73.0164 64.7834 71.2257 65.3445 69.5753C65.9056 67.9083 66.7143 66.464 67.7706 65.2427C68.8436 64.0048 70.1227 63.0475 71.608 62.3709C73.1101 61.6777 74.7936 61.3311 76.6586 61.3311C78.5567 61.3311 80.2568 61.6777 81.7586 62.3709C83.2606 63.0475 84.5397 64.0048 85.596 65.2427C86.6688 66.464 87.4858 67.9083 88.0469 69.5753C88.6082 71.2257 88.8888 73.0164 88.8888 74.9475V75.517C88.8888 77.4481 88.6082 79.2388 88.0469 80.8894C87.4858 82.5399 86.6771 83.984 85.6208 85.222C84.5645 86.4433 83.2853 87.4005 81.7834 88.0938C80.2814 88.7705 78.5897 89.1088 76.7082 89.1088C74.8266 89.1088 73.1347 88.7705 71.6329 88.0938C70.131 87.4005 68.8436 86.4433 67.7706 85.222C66.7143 83.984 65.9056 82.5399 65.3445 80.8894C64.7834 79.2388 64.5029 77.4481 64.5029 75.517ZM69.1077 74.9475V75.517C69.1077 76.854 69.2643 78.1166 69.5781 79.3049C69.8916 80.4768 70.3619 81.5166 70.9892 82.4244C71.6329 83.3322 72.4251 84.0501 73.3658 84.5783C74.3232 85.0899 75.4373 85.3457 76.7082 85.3457C77.979 85.3457 79.0849 85.0899 80.0256 84.5783C80.9829 84.0501 81.7751 83.3322 82.4023 82.4244C83.0295 81.5166 83.4999 80.4768 83.8134 79.3049C84.1436 78.1166 84.3086 76.854 84.3086 75.517V74.9475C84.3086 73.6272 84.1436 72.3811 83.8134 71.2092C83.4999 70.0209 83.0212 68.9729 82.3775 68.0651C81.7505 67.1409 80.9582 66.4146 80.0008 65.8864C79.0436 65.3583 77.9295 65.0942 76.6586 65.0942C75.4042 65.0942 74.3068 65.3583 73.3658 65.8864C72.4251 66.4146 71.6329 67.1409 70.9892 68.0651C70.3619 68.9729 69.8916 70.0209 69.5781 71.2092C69.2643 72.3811 69.1077 73.6272 69.1077 74.9475Z" fill="white"/>
</g>
<defs>
<clipPath id="clip0_67_611">
<rect width="100" height="100" fill="white" transform="translate(0 0.219727)"/>
</clipPath>
</defs>
</svg>
