<svg width="16" height="17" viewBox="0 0 16 17" >
<path fill-rule="evenodd" clip-rule="evenodd" d="M8.96007 1.92338C8.96007 1.39318 8.53028 0.963379 8.00007 0.963379C7.46986 0.963379 7.04007 1.39318 7.04007 1.92338V7.68337H1.28007C0.74988 7.68337 0.320068 8.11316 0.320068 8.64337C0.320068 9.17358 0.74988 9.60337 1.28007 9.60337H7.04007V15.3634C7.04007 15.8936 7.46986 16.3234 8.00007 16.3234C8.53028 16.3234 8.96007 15.8936 8.96007 15.3634V9.60337H14.7201C15.2503 9.60337 15.6801 9.17358 15.6801 8.64337C15.6801 8.11316 15.2503 7.68337 14.7201 7.68337H8.96007V1.92338Z" />
</svg>
