<svg width="16" height="17" viewBox="0 0 16 17">
<path d="M15.9279 12.1642C15.914 12.0725 15.8709 11.9885 15.807 11.9246C15.7723 11.8899 15.7313 11.8607 15.6855 11.8392C13.8563 10.9752 12.1145 10.5426 11.6242 10.4308C11.5284 10.4086 11.4284 10.4197 11.343 10.4613C10.5777 10.8308 9.86444 11.5607 9.5929 11.8572C9.56581 11.8864 9.52415 11.8968 9.48873 11.8822C7.88383 11.2266 6.49344 9.76126 6.47691 9.74331C6.45885 9.72664 4.99423 8.33632 4.338 6.73149C4.32341 6.69607 4.33383 6.6544 4.363 6.62732C4.65954 6.35648 5.38941 5.64256 5.75888 4.87726C5.80055 4.79114 5.81097 4.69114 5.78944 4.596C5.67763 4.10571 5.24498 2.36394 4.38106 0.534728C4.35883 0.488894 4.32967 0.447921 4.29494 0.413198C4.23105 0.349308 4.14772 0.306251 4.05535 0.292361C3.7595 0.246526 2.9831 0.155551 2.16231 0.290971C2.07481 0.305555 1.99008 0.340973 1.91855 0.393058C1.51369 0.685422 0.180315 1.80144 0.0164528 3.85627C-0.173135 6.23625 1.2526 8.96469 4.25338 11.9662C7.25489 14.967 9.98332 16.3921 12.3633 16.2031C14.4188 16.0392 15.5342 14.7059 15.8272 14.301C15.8793 14.2288 15.9147 14.1441 15.9293 14.0573C16.0647 13.2364 15.973 12.4599 15.9279 12.1642Z"/>
</svg>
