<svg width="16" height="12" viewBox="0 0 16 12">
<path d="M8.68466 11.5C3.42313 11.5 0.423126 7.3783 0.300049 0.508807H2.9462C3.03082 5.54644 4.96928 7.67774 6.50774 8.11809V0.508807H8.99236V4.85068C10.5077 4.66573 12.1077 2.68415 12.6462 0.5H15.1231C14.9212 1.63062 14.5177 2.70141 13.938 3.64546C13.3583 4.58952 12.6148 5.38656 11.7539 5.98679C12.7146 6.53426 13.563 7.30868 14.2432 8.259C14.9234 9.20932 15.42 10.3139 15.7 11.5H12.9693C12.3847 9.41273 10.9231 7.79223 8.99236 7.57206V11.5H8.69236H8.68466Z"/>
</svg>
